<svg width="130" height="31" viewBox="0 0 130 31" fill="none" xmlns="http://www.w3.org/2000/svg">
<path d="M81.6562 15.6559C81.6562 15.6559 81.1842 16.1381 80.6307 16.3508C80.0772 16.5636 80.1867 16.6777 80.1867 16.6777C80.1867 16.6777 80.0872 16.9794 80.1365 17.5703C80.1857 18.1612 78.8884 19.5596 78.8884 19.5596L78.8521 19.0588L78.3455 19.1552C78.3455 19.1552 78.4168 17.5774 79.4277 17.1256C78.1313 17.1052 77.7807 16.7635 77.5415 15.8148L77.9938 15.6525L77.7858 15.1714C78.793 14.5872 79.303 14.6061 80.0597 15.6102C79.8357 15.0154 80.0028 14.4507 80.2207 14.0397C80.4305 13.6441 80.6873 13.391 80.6873 13.391L80.9899 13.7721L81.3481 13.4551C81.3481 13.4551 81.4671 13.5926 81.5945 13.8156C81.679 13.9532 81.7454 14.082 81.7944 14.2064C81.8767 14.4148 81.9104 14.6107 81.8995 14.8143C81.9056 15.0864 81.8419 15.3751 81.6562 15.6559Z" fill="#091B60"/>
<path d="M67.8215 10.1609C68.9481 -0.112171 84.0976 3.02705 84.4215 3.35096L84.4225 2.0846C84.4225 2.0846 84.221 1.9037 83.9162 2.17506C83.6114 2.44642 83.4099 2.26551 83.4099 2.26551L83.4099 0.999149H85.0291H85.8392L85.8392 10.1609H85.0291L80.5752 9.97999L80.5752 8.71362C80.5752 8.71362 80.7767 8.53271 81.0815 8.80408C81.3864 9.07544 81.5878 8.89453 81.5878 8.89453L81.5878 7.62817C81.5878 7.62817 73.8949 4.94897 72.2753 9.60522C71.4634 12.244 75.7009 12.9364 78.4432 14.059C78.7568 14.2004 79.487 14.1471 80.2207 14.0397C80.0028 14.4507 79.8357 15.0154 80.0597 15.6102C79.303 14.6061 78.793 14.5872 77.7858 15.1714L77.9938 15.6525L77.5415 15.8148C77.7807 16.7635 78.1313 17.1052 79.4277 17.1256C78.4168 17.5774 78.3455 19.1552 78.3455 19.1552C78.2171 18.6585 77.9411 18.0868 77.5389 17.9055C71.0607 17.5006 67.4166 13.8532 67.8215 10.1609Z" fill="#091B60"/>
<path d="M81.6562 15.6559C81.6562 15.6559 81.1842 16.1381 80.6307 16.3508C80.0772 16.5636 80.1867 16.6777 80.1867 16.6777C80.1867 16.6777 80.0872 16.9794 80.1365 17.5703C80.1857 18.1612 78.8884 19.5596 78.8884 19.5596L78.8521 19.0588L78.3455 19.1552M81.6562 15.6559C81.8419 15.3751 81.9056 15.0864 81.8995 14.8143M81.6562 15.6559C81.8021 15.3366 81.8858 15.0694 81.8995 14.8143M81.3481 13.4551L80.9899 13.7721L80.6873 13.391C80.6873 13.391 80.4305 13.6441 80.2207 14.0397M81.3481 13.4551C81.3481 13.4551 81.4671 13.5926 81.5945 13.8156M81.3481 13.4551C81.4364 13.5741 81.5136 13.6858 81.58 13.7922C81.5849 13.8001 81.5897 13.8079 81.5945 13.8156M81.5945 13.8156C81.7372 14.0655 81.8907 14.4227 81.8995 14.8143M81.5945 13.8156C81.679 13.9532 81.7454 14.082 81.7944 14.2064C81.8767 14.4148 81.9104 14.6107 81.8995 14.8143M78.3455 19.1552C78.3455 19.1552 78.4168 17.5774 79.4277 17.1256C78.1313 17.1052 77.7807 16.7635 77.5415 15.8148L77.9938 15.6525L77.7858 15.1714C78.793 14.5872 79.303 14.6061 80.0597 15.6102C79.8357 15.0154 80.0028 14.4507 80.2207 14.0397M78.3455 19.1552C78.2171 18.6585 77.9411 18.0868 77.5389 17.9055C71.0607 17.5006 67.4166 13.8532 67.8215 10.1609C68.9481 -0.112171 84.0976 3.02705 84.4215 3.35096L84.4225 2.0846C84.4225 2.0846 84.221 1.9037 83.9162 2.17506C83.6114 2.44642 83.4099 2.26551 83.4099 2.26551L83.4099 0.999149H85.0291H85.8392L85.8392 10.1609H85.0291L80.5752 9.97999L80.5752 8.71362C80.5752 8.71362 80.7767 8.53271 81.0815 8.80408C81.3864 9.07544 81.5878 8.89453 81.5878 8.89453L81.5878 7.62817C81.5878 7.62817 73.8949 4.94897 72.2753 9.60522C71.4634 12.244 75.7009 12.9364 78.4432 14.059C78.7568 14.2004 79.487 14.1471 80.2207 14.0397" stroke="#FAF8F2" stroke-width="0.404891"/>
<path fill-rule="evenodd" clip-rule="evenodd" d="M79.0876 19.5178C79.3295 19.1187 80.108 17.8819 80.5711 17.7039C80.0656 17.9549 79.3224 19.1307 79.0876 19.5178ZM81.7814 15.738C82.4243 15.283 82.8708 15.0687 83.3414 15.195C83.5828 15.2591 83.8312 15.4133 84.1162 15.6734C83.8316 15.4148 83.5834 15.2599 83.3414 15.195C82.868 15.0692 82.422 15.2901 81.7814 15.738Z" fill="#AB41EA"/>
<path d="M84.2194 16.3859C85.4007 17.0689 87.0494 18.1088 86.6445 22.1577C84.477 33.2997 66.6035 29.2433 67.0072 21.5887C67.0072 19.6417 69.036 19.625 69.036 19.625C69.036 19.625 70.858 19.8275 70.858 21.8519C70.858 23.8764 79.7613 28.4336 81.9882 22.5626C82.3685 21.3269 82.0296 20.1742 80.5754 19.625H79.3608C80.3063 19.5697 80.5498 19.1284 80.8243 18.2285C81.0013 19.4218 81.3041 19.8287 82.3751 19.8707L82.4818 19.3959L83.0023 19.5312C83.4126 18.3936 83.171 17.9354 82.1849 17.3296C83.6278 17.5873 83.8294 17.186 84.2194 16.3859Z" fill="#AB41EA"/>
<path d="M80.5711 17.7039C80.5711 17.7039 81.1465 17.238 81.0972 16.6471C81.048 16.0562 81.7814 15.738 81.7814 15.738C82.422 15.2901 82.868 15.0692 83.3414 15.195C83.5834 15.2599 83.8316 15.4148 84.1162 15.6734L83.8437 16.1078L84.2194 16.3859C83.8294 17.186 83.6278 17.5873 82.1849 17.3296C83.171 17.9354 83.4126 18.3936 83.0023 19.5312L82.4818 19.3959L82.3751 19.8707C81.3041 19.8287 81.0013 19.4218 80.8243 18.2285C80.5498 19.1284 80.3063 19.5697 79.3608 19.625C79.2542 19.6262 79.1379 19.6404 79.0136 19.6417C79.0136 19.6417 79.0403 19.5957 79.0876 19.5178C79.3224 19.1307 80.0656 17.9549 80.5711 17.7039Z" fill="#AB41EA"/>
<path d="M80.5711 17.7039C80.5711 17.7039 81.1465 17.238 81.0972 16.6471C81.048 16.0562 81.7814 15.738 81.7814 15.738M80.5711 17.7039C80.108 17.8819 79.3295 19.1187 79.0876 19.5178M80.5711 17.7039C80.0656 17.9549 79.3224 19.1307 79.0876 19.5178M79.0136 19.6417C79.1377 19.6454 79.2551 19.6312 79.3608 19.625M79.0136 19.6417C79.0136 19.6417 79.0403 19.5957 79.0876 19.5178M79.0136 19.6417C79.1379 19.6404 79.2542 19.6262 79.3608 19.625M84.2194 16.3859C85.4007 17.0689 87.0494 18.1088 86.6445 22.1577C84.477 33.2997 66.6035 29.2433 67.0072 21.5887C67.0072 19.6417 69.036 19.625 69.036 19.625C69.036 19.625 70.858 19.8275 70.858 21.8519C70.858 23.8764 79.7613 28.4336 81.9882 22.5626C82.3685 21.3269 82.0296 20.1742 80.5754 19.625H79.3608M84.2194 16.3859L83.8437 16.1078L84.1162 15.6734M84.2194 16.3859C83.8294 17.186 83.6278 17.5873 82.1849 17.3296C83.171 17.9354 83.4126 18.3936 83.0023 19.5312L82.4818 19.3959L82.3751 19.8707C81.3041 19.8287 81.0013 19.4218 80.8243 18.2285C80.5498 19.1284 80.3063 19.5697 79.3608 19.625M81.7814 15.738C82.422 15.2901 82.868 15.0692 83.3414 15.195M81.7814 15.738C82.4243 15.283 82.8708 15.0687 83.3414 15.195M83.3414 15.195C83.5828 15.2591 83.8312 15.4133 84.1162 15.6734M83.3414 15.195C83.5834 15.2599 83.8316 15.4148 84.1162 15.6734" stroke="#FAF8F2" stroke-width="0.404891"/>
<path d="M19.8409 21.8182V27H18.142V15.3636H19.8182V19.6932H19.9261C20.1307 19.2235 20.4432 18.8504 20.8636 18.5739C21.2841 18.2973 21.8333 18.1591 22.5114 18.1591C23.1098 18.1591 23.6326 18.2822 24.0795 18.5284C24.5303 18.7746 24.8788 19.142 25.125 19.6307C25.375 20.1155 25.5 20.7216 25.5 21.4489V27H23.8011V21.6534C23.8011 21.0133 23.6364 20.517 23.3068 20.1648C22.9773 19.8087 22.5189 19.6307 21.9318 19.6307C21.5303 19.6307 21.1705 19.7159 20.8523 19.8864C20.5379 20.0568 20.2898 20.3068 20.108 20.6364C19.9299 20.9621 19.8409 21.3561 19.8409 21.8182ZM30.3068 27.1932C29.7538 27.1932 29.2538 27.0909 28.8068 26.8864C28.3598 26.678 28.0057 26.3769 27.7443 25.983C27.4867 25.589 27.358 25.1061 27.358 24.5341C27.358 24.0417 27.4527 23.6364 27.642 23.3182C27.8314 23 28.0871 22.7481 28.4091 22.5625C28.7311 22.3769 29.0909 22.2367 29.4886 22.142C29.8864 22.0473 30.2917 21.9754 30.7045 21.9261C31.2273 21.8655 31.6515 21.8163 31.9773 21.7784C32.303 21.7367 32.5398 21.6705 32.6875 21.5795C32.8352 21.4886 32.9091 21.3409 32.9091 21.1364V21.0966C32.9091 20.6004 32.7689 20.2159 32.4886 19.9432C32.2121 19.6705 31.7992 19.5341 31.25 19.5341C30.678 19.5341 30.2273 19.661 29.8977 19.9148C29.572 20.1648 29.3466 20.4432 29.2216 20.75L27.625 20.3864C27.8144 19.8561 28.0909 19.428 28.4545 19.1023C28.822 18.7727 29.2443 18.5341 29.7216 18.3864C30.1989 18.2348 30.7008 18.1591 31.2273 18.1591C31.5758 18.1591 31.9451 18.2008 32.3352 18.2841C32.7292 18.3636 33.0966 18.5114 33.4375 18.7273C33.7822 18.9432 34.0644 19.2519 34.2841 19.6534C34.5038 20.0511 34.6136 20.5682 34.6136 21.2045V27H32.9545V25.8068H32.8864C32.7765 26.0265 32.6117 26.2424 32.392 26.4545C32.1723 26.6667 31.8902 26.8428 31.5455 26.983C31.2008 27.1231 30.7879 27.1932 30.3068 27.1932ZM30.6761 25.8295C31.1458 25.8295 31.5473 25.7367 31.8807 25.5511C32.2178 25.3655 32.4735 25.1231 32.6477 24.8239C32.8258 24.5208 32.9148 24.197 32.9148 23.8523V22.7273C32.8542 22.7879 32.7367 22.8447 32.5625 22.8977C32.392 22.947 32.197 22.9905 31.9773 23.0284C31.7576 23.0625 31.5436 23.0947 31.3352 23.125C31.1269 23.1515 30.9527 23.1742 30.8125 23.1932C30.483 23.2348 30.1818 23.3049 29.9091 23.4034C29.6402 23.5019 29.4242 23.6439 29.2614 23.8295C29.1023 24.0114 29.0227 24.2538 29.0227 24.5568C29.0227 24.9773 29.178 25.2955 29.4886 25.5114C29.7992 25.7235 30.1951 25.8295 30.6761 25.8295ZM37.6378 30.2727C37.384 30.2727 37.1529 30.2519 36.9446 30.2102C36.7363 30.1723 36.581 30.1307 36.4787 30.0852L36.8878 28.6932C37.1984 28.7765 37.4749 28.8125 37.7173 28.8011C37.9598 28.7898 38.1738 28.6989 38.3594 28.5284C38.5488 28.358 38.7154 28.0795 38.8594 27.6932L39.0696 27.1136L35.8764 18.2727H37.6946L39.9048 25.0455H39.9957L42.206 18.2727H44.0298L40.4332 28.1648C40.2666 28.6193 40.0545 29.0038 39.7969 29.3182C39.5393 29.6364 39.2325 29.875 38.8764 30.0341C38.5204 30.1932 38.1075 30.2727 37.6378 30.2727ZM52.1662 20.4034L50.6264 20.6761C50.562 20.4792 50.4598 20.2917 50.3196 20.1136C50.1832 19.9356 49.9976 19.7898 49.7628 19.6761C49.5279 19.5625 49.2344 19.5057 48.8821 19.5057C48.401 19.5057 47.9995 19.6136 47.6776 19.8295C47.3556 20.0417 47.1946 20.3163 47.1946 20.6534C47.1946 20.9451 47.3026 21.1799 47.5185 21.358C47.7344 21.536 48.0829 21.6818 48.5639 21.7955L49.9503 22.1136C50.7533 22.2992 51.3518 22.5852 51.7457 22.9716C52.1397 23.358 52.3366 23.8598 52.3366 24.4773C52.3366 25 52.1851 25.4659 51.8821 25.875C51.5829 26.2803 51.1643 26.5985 50.6264 26.8295C50.0923 27.0606 49.473 27.1761 48.7685 27.1761C47.7912 27.1761 46.9938 26.9678 46.3764 26.5511C45.759 26.1307 45.3802 25.5341 45.2401 24.7614L46.8821 24.5114C46.9844 24.9394 47.1946 25.2633 47.5128 25.483C47.831 25.6989 48.2457 25.8068 48.7571 25.8068C49.3139 25.8068 49.759 25.6913 50.0923 25.4602C50.4257 25.2254 50.5923 24.9394 50.5923 24.6023C50.5923 24.3295 50.4901 24.1004 50.2855 23.9148C50.0848 23.7292 49.776 23.589 49.3594 23.4943L47.8821 23.1705C47.0677 22.9848 46.4654 22.6894 46.0753 22.2841C45.6889 21.8788 45.4957 21.3655 45.4957 20.7443C45.4957 20.2292 45.6397 19.7784 45.9276 19.392C46.2154 19.0057 46.6132 18.7045 47.1207 18.4886C47.6283 18.2689 48.2098 18.1591 48.8651 18.1591C49.8082 18.1591 50.5507 18.3636 51.0923 18.7727C51.634 19.178 51.992 19.7216 52.1662 20.4034Z" fill="#AB41EA"/>
<path d="M90.6818 27.1932C90.1288 27.1932 89.6288 27.0909 89.1818 26.8864C88.7348 26.678 88.3807 26.3769 88.1193 25.983C87.8617 25.589 87.733 25.1061 87.733 24.5341C87.733 24.0417 87.8277 23.6364 88.017 23.3182C88.2064 23 88.4621 22.7481 88.7841 22.5625C89.1061 22.3769 89.4659 22.2367 89.8636 22.142C90.2614 22.0473 90.6667 21.9754 91.0795 21.9261C91.6023 21.8655 92.0265 21.8163 92.3523 21.7784C92.678 21.7367 92.9148 21.6705 93.0625 21.5795C93.2102 21.4886 93.2841 21.3409 93.2841 21.1364V21.0966C93.2841 20.6004 93.1439 20.2159 92.8636 19.9432C92.5871 19.6705 92.1742 19.5341 91.625 19.5341C91.053 19.5341 90.6023 19.661 90.2727 19.9148C89.947 20.1648 89.7216 20.4432 89.5966 20.75L88 20.3864C88.1894 19.8561 88.4659 19.428 88.8295 19.1023C89.197 18.7727 89.6193 18.5341 90.0966 18.3864C90.5739 18.2348 91.0758 18.1591 91.6023 18.1591C91.9508 18.1591 92.3201 18.2008 92.7102 18.2841C93.1042 18.3636 93.4716 18.5114 93.8125 18.7273C94.1572 18.9432 94.4394 19.2519 94.6591 19.6534C94.8788 20.0511 94.9886 20.5682 94.9886 21.2045V27H93.3295V25.8068H93.2614C93.1515 26.0265 92.9867 26.2424 92.767 26.4545C92.5473 26.6667 92.2652 26.8428 91.9205 26.983C91.5758 27.1231 91.1629 27.1932 90.6818 27.1932ZM91.0511 25.8295C91.5208 25.8295 91.9223 25.7367 92.2557 25.5511C92.5928 25.3655 92.8485 25.1231 93.0227 24.8239C93.2008 24.5208 93.2898 24.197 93.2898 23.8523V22.7273C93.2292 22.7879 93.1117 22.8447 92.9375 22.8977C92.767 22.947 92.572 22.9905 92.3523 23.0284C92.1326 23.0625 91.9186 23.0947 91.7102 23.125C91.5019 23.1515 91.3277 23.1742 91.1875 23.1932C90.858 23.2348 90.5568 23.3049 90.2841 23.4034C90.0152 23.5019 89.7992 23.6439 89.6364 23.8295C89.4773 24.0114 89.3977 24.2538 89.3977 24.5568C89.3977 24.9773 89.553 25.2955 89.8636 25.5114C90.1742 25.7235 90.5701 25.8295 91.0511 25.8295ZM98.9503 21.8182V27H97.2514V18.2727H98.8821V19.6932H98.9901C99.1908 19.2311 99.5052 18.8598 99.9332 18.5795C100.365 18.2992 100.909 18.1591 101.564 18.1591C102.159 18.1591 102.679 18.2841 103.126 18.5341C103.573 18.7803 103.92 19.1477 104.166 19.6364C104.412 20.125 104.536 20.7292 104.536 21.4489V27H102.837V21.6534C102.837 21.0208 102.672 20.5265 102.342 20.1705C102.013 19.8106 101.56 19.6307 100.984 19.6307C100.59 19.6307 100.24 19.7159 99.9332 19.8864C99.6302 20.0568 99.3897 20.3068 99.2116 20.6364C99.0374 20.9621 98.9503 21.3561 98.9503 21.8182ZM110.888 18.2727V19.6364H106.121V18.2727H110.888ZM107.399 16.1818H109.098V24.4375C109.098 24.767 109.147 25.0152 109.246 25.1818C109.344 25.3447 109.471 25.4564 109.626 25.517C109.786 25.5739 109.958 25.6023 110.143 25.6023C110.28 25.6023 110.399 25.5928 110.501 25.5739C110.604 25.5549 110.683 25.5398 110.74 25.5284L111.047 26.9318C110.948 26.9697 110.808 27.0076 110.626 27.0455C110.445 27.0871 110.217 27.1098 109.945 27.1136C109.498 27.1212 109.081 27.0417 108.695 26.875C108.308 26.7083 107.996 26.4508 107.757 26.1023C107.518 25.7538 107.399 25.3163 107.399 24.7898V16.1818ZM116.349 27.1761C115.531 27.1761 114.817 26.9886 114.207 26.6136C113.598 26.2386 113.124 25.714 112.787 25.0398C112.45 24.3655 112.281 23.5777 112.281 22.6761C112.281 21.7708 112.45 20.9792 112.787 20.3011C113.124 19.6231 113.598 19.0966 114.207 18.7216C114.817 18.3466 115.531 18.1591 116.349 18.1591C117.168 18.1591 117.882 18.3466 118.491 18.7216C119.101 19.0966 119.575 19.6231 119.912 20.3011C120.249 20.9792 120.418 21.7708 120.418 22.6761C120.418 23.5777 120.249 24.3655 119.912 25.0398C119.575 25.714 119.101 26.2386 118.491 26.6136C117.882 26.9886 117.168 27.1761 116.349 27.1761ZM116.355 25.75C116.885 25.75 117.325 25.6098 117.673 25.3295C118.022 25.0492 118.279 24.6761 118.446 24.2102C118.616 23.7443 118.702 23.2311 118.702 22.6705C118.702 22.1136 118.616 21.6023 118.446 21.1364C118.279 20.6667 118.022 20.2898 117.673 20.0057C117.325 19.7216 116.885 19.5795 116.355 19.5795C115.821 19.5795 115.378 19.7216 115.026 20.0057C114.677 20.2898 114.418 20.6667 114.247 21.1364C114.08 21.6023 113.997 22.1136 113.997 22.6705C113.997 23.2311 114.08 23.7443 114.247 24.2102C114.418 24.6761 114.677 25.0492 115.026 25.3295C115.378 25.6098 115.821 25.75 116.355 25.75ZM128.854 20.4034L127.314 20.6761C127.25 20.4792 127.147 20.2917 127.007 20.1136C126.871 19.9356 126.685 19.7898 126.45 19.6761C126.215 19.5625 125.922 19.5057 125.57 19.5057C125.089 19.5057 124.687 19.6136 124.365 19.8295C124.043 20.0417 123.882 20.3163 123.882 20.6534C123.882 20.9451 123.99 21.1799 124.206 21.358C124.422 21.536 124.77 21.6818 125.251 21.7955L126.638 22.1136C127.441 22.2992 128.039 22.5852 128.433 22.9716C128.827 23.358 129.024 23.8598 129.024 24.4773C129.024 25 128.873 25.4659 128.57 25.875C128.27 26.2803 127.852 26.5985 127.314 26.8295C126.78 27.0606 126.161 27.1761 125.456 27.1761C124.479 27.1761 123.681 26.9678 123.064 26.5511C122.446 26.1307 122.068 25.5341 121.928 24.7614L123.57 24.5114C123.672 24.9394 123.882 25.2633 124.2 25.483C124.518 25.6989 124.933 25.8068 125.445 25.8068C126.001 25.8068 126.446 25.6913 126.78 25.4602C127.113 25.2254 127.28 24.9394 127.28 24.6023C127.28 24.3295 127.178 24.1004 126.973 23.9148C126.772 23.7292 126.464 23.589 126.047 23.4943L124.57 23.1705C123.755 22.9848 123.153 22.6894 122.763 22.2841C122.376 21.8788 122.183 21.3655 122.183 20.7443C122.183 20.2292 122.327 19.7784 122.615 19.392C122.903 19.0057 123.301 18.7045 123.808 18.4886C124.316 18.2689 124.897 18.1591 125.553 18.1591C126.496 18.1591 127.238 18.3636 127.78 18.7727C128.321 19.178 128.679 19.7216 128.854 20.4034Z" fill="#AB41EA"/>
<path d="M12.1016 11.792C12.5113 12.0237 12.7301 12.2217 12.8252 12.4482C12.9298 12.6975 12.9068 13.0372 12.6865 13.6143L13.0371 13.8096C13.3661 13.377 13.8529 13.2278 14.2822 13.1924C14.4907 13.1752 14.6791 13.185 14.8174 13.2002L14.7363 13.4307L14.665 13.6318L14.8701 13.6914L15.1094 13.7617C15.0914 13.803 15.0765 13.8439 15.0586 13.8818C15.004 13.9897 14.9342 14.1152 14.8428 14.2383C14.7274 14.3936 14.5841 14.5403 14.4111 14.6533C14.2286 14.7508 14.0009 14.8134 13.6924 14.8564C13.6761 14.8524 13.6546 14.8469 13.6289 14.8398C13.5637 14.8219 13.4706 14.795 13.3643 14.7568C13.1492 14.6797 12.887 14.5629 12.6729 14.4023C12.4331 14.2226 12.2657 14.1397 12.1357 14.1279C12.062 14.1214 11.9862 14.1356 11.9258 14.1836C11.9227 14.1847 11.9193 14.1863 11.916 14.1875C11.8736 14.2023 11.8144 14.2262 11.7402 14.2607C11.5914 14.33 11.3832 14.4446 11.1348 14.6309C11.0675 14.6813 10.9146 14.7247 10.6748 14.7412C10.4471 14.7569 10.18 14.7464 9.9209 14.7246C9.74123 14.7095 9.56832 14.6882 9.41895 14.668L9.43262 14.6592L9.61523 14.5254L9.46094 14.3584L9.29688 14.1816C9.43084 14.1236 9.61123 14.055 9.81445 14.0029C10.2549 13.8901 10.7564 13.8657 11.1436 14.125L11.4287 13.8516C11.0974 13.3045 10.9845 12.954 11.0059 12.6738C11.0239 12.437 11.1432 12.2177 11.3887 11.9385L11.6172 12.1182L11.7861 12.252L11.9082 12.0742L12.1016 11.792ZM24.0908 1.20215V7.27539H22.8252C22.8951 7.17421 22.9521 7.0522 22.9785 6.90137C23.0209 6.65987 22.9911 6.36211 22.8652 5.99512C22.6128 5.25912 22.1886 4.76785 21.6572 4.43652C21.1317 4.10889 20.511 3.94349 19.873 3.83691L19.8564 3.83398H14.374V12.7422C14.374 12.7563 14.3777 12.769 14.3799 12.7812C14.3373 12.7829 14.2936 12.7844 14.249 12.7881C13.9441 12.8132 13.5879 12.8911 13.2598 13.082C13.3105 12.7868 13.2972 12.5279 13.1982 12.292C13.0319 11.8955 12.6506 11.6205 12.1328 11.3477L11.9736 11.2646L11.8721 11.4121L11.6973 11.666L11.4893 11.5029L11.3447 11.3896L11.2178 11.5225C10.8719 11.8838 10.6345 12.224 10.6025 12.6436C10.5811 12.9258 10.6553 13.2218 10.8125 13.5605C10.4267 13.4794 10.0328 13.5287 9.71387 13.6104C9.56905 13.6475 9.43549 13.6926 9.31934 13.7363C9.32254 13.7265 9.32687 13.717 9.33008 13.707C9.41912 13.4303 9.51458 13.0612 9.51465 12.7422V3.83398H4.43652L4.4209 3.83691C3.78313 3.94346 3.16213 4.10903 2.63672 4.43652C2.1053 4.76787 1.68021 5.25904 1.42773 5.99512C1.18416 6.70541 1.31287 7.17849 1.55762 7.47852H0.202148V1.20215H24.0908Z" fill="#091B60" stroke="#FAF8F2" stroke-width="0.404891"/>
<path d="M9.51456 25.4299V27.0495L14.7782 27.1151V25.6324L14.4677 17.2106V17.7235C13.5827 17.8183 13.0997 17.8141 12.5512 16.4548C12.562 17.6121 12.3024 18.0603 11.1206 18.3173L10.9587 17.8045L10.4998 17.9664C9.96615 17.0369 10.15 16.5642 11.0666 15.78C10.0571 16.0532 9.53227 16.0629 8.90723 14.9972C8.90723 14.9972 9.51456 16.6996 9.51456 17.3321V25.4299Z" fill="#AB41EA"/>
<path d="M11.1341 14.9683C10.6598 14.6126 8.90723 14.9972 8.90723 14.9972C9.53227 16.0629 10.0571 16.0532 11.0666 15.78C10.15 16.5642 9.96615 17.0369 10.4998 17.9664L10.9587 17.8045L11.1206 18.3173C12.3024 18.0603 12.562 17.6121 12.5512 16.4548C13.0997 17.8141 13.5827 17.8183 14.4677 17.7235V17.2106H14.9806C15.0483 16.8322 15.0476 16.5395 14.9741 16.3001C14.829 15.8322 14.4048 15.5718 13.6849 15.2672C13.6849 15.2672 13.0256 14.815 12.5512 15.1708C12.0769 15.5265 11.1341 14.9683 11.1341 14.9683Z" fill="#AB41EA"/>
<path d="M9.51456 27.0495C9.51456 27.0495 9.51456 26.0624 9.51456 25.4299M9.51456 27.0495L14.7782 27.1151M9.51456 27.0495V25.4299M9.51456 25.4299V17.3321C9.51456 16.6996 8.90723 14.9972 8.90723 14.9972M8.90723 14.9972C8.90723 14.9972 10.6598 14.6126 11.1341 14.9683C11.1341 14.9683 12.0769 15.5265 12.5512 15.1708C13.0256 14.815 13.6849 15.2672 13.6849 15.2672M8.90723 14.9972C9.53227 16.0629 10.0571 16.0532 11.0666 15.78C10.15 16.5642 9.96615 17.0369 10.4998 17.9664L10.9587 17.8045L11.1206 18.3173C12.3024 18.0603 12.562 17.6121 12.5512 16.4548C13.0997 17.8141 13.5827 17.8183 14.4677 17.7235V17.2106M13.6849 15.2672C14.4048 15.5718 14.829 15.8322 14.9741 16.3001M13.6849 15.2672C14.4121 15.57 14.8309 15.8343 14.9741 16.3001M14.4677 17.2106L14.7782 25.6324M14.4677 17.2106H14.9806M14.7782 25.6324C14.7782 26.2649 14.7782 27.1151 14.7782 27.1151M14.7782 25.6324V27.1151M14.9806 17.2106C15.0483 16.8322 15.0476 16.5395 14.9741 16.3001M14.9806 17.2106C15.0495 16.831 15.048 16.5386 14.9741 16.3001" stroke="#FAF8F2" stroke-width="0.404891"/>
<path d="M11.6149 14.3432L12.1794 15.1751M12.1794 15.1751L12.4765 14.1947M12.1794 15.1751H11.1693M12.1794 15.1751L11.5555 15.9772M12.1794 15.1751L12.3576 16.1851M12.1794 15.1751L13.0271 15.6801M12.1794 15.1751L13.13 14.7889L13.1417 14.7834M12.4765 14.1947C12.5421 14.1947 12.5953 14.1415 12.5953 14.0759C12.5953 14.0102 12.5421 13.957 12.4765 13.957C12.4108 13.957 12.3576 14.0102 12.3576 14.0759C12.3576 14.1415 12.4108 14.1947 12.4765 14.1947ZM13.1417 14.7834C13.1628 14.8166 13.1999 14.8387 13.2422 14.8387C13.3078 14.8387 13.361 14.7855 13.361 14.7198C13.361 14.6542 13.3078 14.601 13.2422 14.601C13.1765 14.601 13.1233 14.6542 13.1233 14.7198C13.1233 14.7432 13.1301 14.765 13.1417 14.7834ZM11.1693 15.1454C11.1693 15.211 11.1161 15.2642 11.0505 15.2642C10.9848 15.2642 10.9316 15.211 10.9316 15.1454C10.9316 15.0797 10.9848 15.0265 11.0505 15.0265C11.1161 15.0265 11.1693 15.0797 11.1693 15.1454ZM12.4765 16.2743C12.4765 16.3399 12.4233 16.3931 12.3576 16.3931C12.292 16.3931 12.2388 16.3399 12.2388 16.2743C12.2388 16.2086 12.292 16.1554 12.3576 16.1554C12.4233 16.1554 12.4765 16.2086 12.4765 16.2743ZM11.6446 14.2541C11.6446 14.3197 11.5914 14.3729 11.5258 14.3729C11.4602 14.3729 11.407 14.3197 11.407 14.2541C11.407 14.1885 11.4602 14.1353 11.5258 14.1353C11.5914 14.1353 11.6446 14.1885 11.6446 14.2541ZM11.5852 16.0366C11.5852 16.1022 11.532 16.1554 11.4664 16.1554C11.4008 16.1554 11.3476 16.1022 11.3476 16.0366C11.3476 15.971 11.4008 15.9178 11.4664 15.9178C11.532 15.9178 11.5852 15.971 11.5852 16.0366ZM13.2489 15.7395C13.2489 15.8052 13.1957 15.8584 13.13 15.8584C13.0644 15.8584 13.0112 15.8052 13.0112 15.7395C13.0112 15.6739 13.0644 15.6207 13.13 15.6207C13.1957 15.6207 13.2489 15.6739 13.2489 15.7395Z" stroke="#E1C1FA" stroke-width="0.202446" stroke-linejoin="round"/>
</svg>
